<svg width="254" height="101" viewBox="0 0 254 101" fill="none" xmlns="http://www.w3.org/2000/svg">
<rect x="6" y="5" width="243" height="91" rx="45.5" fill="#FED283" stroke="#B8620E" stroke-width="10"/>
<rect x="11" y="10" width="164" height="81" rx="40.5" fill="#E0B1CB"/>
<circle cx="51" cy="50" r="45" fill="#FED283" stroke="#B8620E" stroke-width="10"/>
<path d="M22.8612 59.668C24.8052 59.596 26.8212 59.5 28.9092 59.38C30.9972 59.26 33.3492 59.116 35.9652 58.948C35.9172 59.5 35.7852 59.992 35.5692 60.424C35.3532 60.832 35.1132 61.108 34.8492 61.252H19.9092V35.692C20.7252 35.26 21.7092 35.044 22.8612 35.044V59.668ZM45.5395 60.604C45.2515 60.796 44.8435 60.952 44.3155 61.072C43.8115 61.192 43.3555 61.252 42.9475 61.252C42.2995 60.148 41.6155 58.816 40.8955 57.256C40.1755 55.672 39.4795 54.04 38.8075 52.36C38.1355 50.656 37.5235 48.988 36.9715 47.356C36.4435 45.724 36.0235 44.272 35.7115 43C36.1195 42.736 36.5515 42.544 37.0075 42.424C37.4875 42.28 37.9795 42.208 38.4835 42.208C38.7475 43.36 39.0955 44.668 39.5275 46.132C39.9835 47.596 40.4875 49.108 41.0395 50.668C41.5915 52.204 42.1675 53.728 42.7675 55.24C43.3915 56.752 44.0155 58.132 44.6395 59.38C45.9355 56.788 47.0635 54.04 48.0235 51.136C49.0075 48.208 49.7755 45.4 50.3275 42.712C50.5915 42.568 50.9035 42.448 51.2635 42.352C51.6235 42.256 51.9835 42.208 52.3435 42.208C52.4635 42.208 52.5835 42.208 52.7035 42.208C52.8235 42.208 52.9435 42.22 53.0635 42.244C52.6795 43.684 52.2115 45.196 51.6595 46.78C51.1075 48.364 50.4955 49.96 49.8235 51.568C49.1755 53.152 48.4795 54.724 47.7355 56.284C47.0155 57.82 46.2835 59.26 45.5395 60.604ZM74.9594 59.956C75.7994 59.956 76.5794 59.812 77.2994 59.524C78.0194 59.236 78.6314 58.816 79.1354 58.264C79.6634 57.712 80.0714 57.028 80.3594 56.212C80.6474 55.396 80.7914 54.448 80.7914 53.368C80.7914 52.432 80.6714 51.556 80.4314 50.74C80.1914 49.924 79.8074 49.216 79.2794 48.616C78.7514 48.016 78.0674 47.548 77.2274 47.212C76.3874 46.852 75.3794 46.672 74.2034 46.672C73.5074 46.672 72.8474 46.744 72.2234 46.888C71.6234 47.008 71.0594 47.176 70.5314 47.392C70.0274 47.608 69.5714 47.848 69.1634 48.112C68.7554 48.376 68.3954 48.628 68.0834 48.868C67.9154 48.796 67.7474 48.676 67.5794 48.508C67.4354 48.316 67.3394 48.16 67.2914 48.04L68.7314 36.844C69.1394 36.484 69.6794 36.184 70.3514 35.944C71.0474 35.704 71.9234 35.584 72.9794 35.584H82.9514C82.9034 36.208 82.7114 36.736 82.3754 37.168C82.0634 37.6 81.6314 37.816 81.0794 37.816H70.6754L69.7034 45.808C70.4714 45.4 71.3354 45.064 72.2954 44.8C73.2794 44.512 74.3474 44.368 75.4994 44.368C76.9394 44.368 78.1754 44.584 79.2074 45.016C80.2634 45.448 81.1154 46.024 81.7634 46.744C82.4354 47.464 82.9274 48.304 83.2394 49.264C83.5514 50.2 83.7074 51.184 83.7074 52.216C83.7074 53.416 83.4914 54.58 83.0594 55.708C82.6514 56.836 82.0274 57.844 81.1874 58.732C80.3714 59.596 79.3394 60.292 78.0914 60.82C76.8434 61.348 75.4034 61.612 73.7714 61.612C72.5714 61.612 71.4914 61.456 70.5314 61.144C69.5954 60.856 68.7914 60.448 68.1194 59.92C67.4474 59.368 66.9314 58.732 66.5714 58.012C66.2114 57.292 66.0314 56.5 66.0314 55.636C66.0314 55.252 66.0794 54.952 66.1754 54.736C66.4394 54.472 66.8234 54.244 67.3274 54.052C67.8554 53.86 68.3474 53.752 68.8034 53.728C68.7794 53.848 68.7674 53.956 68.7674 54.052C68.7674 54.148 68.7674 54.244 68.7674 54.34C68.7674 55.132 68.8994 55.876 69.1634 56.572C69.4514 57.244 69.8474 57.832 70.3514 58.336C70.8794 58.84 71.5274 59.236 72.2954 59.524C73.0634 59.812 73.9514 59.956 74.9594 59.956Z" fill="#531403"/>
</svg>
