<svg width="254" height="101" viewBox="0 0 254 101" fill="none" xmlns="http://www.w3.org/2000/svg">
<rect x="6" y="5" width="243" height="91" rx="45.5" fill="#FED283" stroke="#B8620E" stroke-width="10"/>
<rect x="11" y="10" width="164" height="81" rx="40.5" fill="#E0B1CB"/>
<circle cx="51" cy="50" r="45" fill="#FED283" stroke="#B8620E" stroke-width="10"/>
<path d="M22.6503 59.668C24.5943 59.596 26.6103 59.5 28.6983 59.38C30.7863 59.26 33.1383 59.116 35.7543 58.948C35.7063 59.5 35.5743 59.992 35.3583 60.424C35.1423 60.832 34.9023 61.108 34.6383 61.252H19.6983V35.692C20.5143 35.26 21.4983 35.044 22.6503 35.044V59.668ZM45.3286 60.604C45.0406 60.796 44.6326 60.952 44.1046 61.072C43.6006 61.192 43.1446 61.252 42.7366 61.252C42.0886 60.148 41.4046 58.816 40.6846 57.256C39.9646 55.672 39.2686 54.04 38.5966 52.36C37.9246 50.656 37.3126 48.988 36.7606 47.356C36.2326 45.724 35.8126 44.272 35.5006 43C35.9086 42.736 36.3406 42.544 36.7966 42.424C37.2766 42.28 37.7686 42.208 38.2726 42.208C38.5366 43.36 38.8846 44.668 39.3166 46.132C39.7726 47.596 40.2766 49.108 40.8286 50.668C41.3806 52.204 41.9566 53.728 42.5566 55.24C43.1806 56.752 43.8046 58.132 44.4286 59.38C45.7246 56.788 46.8526 54.04 47.8126 51.136C48.7966 48.208 49.5646 45.4 50.1166 42.712C50.3806 42.568 50.6926 42.448 51.0526 42.352C51.4126 42.256 51.7726 42.208 52.1326 42.208C52.2526 42.208 52.3726 42.208 52.4926 42.208C52.6126 42.208 52.7326 42.22 52.8526 42.244C52.4686 43.684 52.0006 45.196 51.4486 46.78C50.8966 48.364 50.2846 49.96 49.6126 51.568C48.9646 53.152 48.2686 54.724 47.5246 56.284C46.8046 57.82 46.0726 59.26 45.3286 60.604ZM65.3525 55.42C65.2085 55.348 65.0525 55.216 64.8845 55.024C64.7405 54.808 64.6685 54.568 64.6685 54.304C67.1645 51.448 69.1925 48.496 70.7525 45.448C72.3365 42.376 73.3685 39.352 73.8485 36.376C74.7365 35.8 75.8165 35.512 77.0885 35.512C76.8245 37.048 76.3685 38.632 75.7205 40.264C75.0725 41.872 74.3045 43.456 73.4165 45.016C72.5285 46.576 71.5685 48.064 70.5365 49.48C69.5045 50.896 68.4725 52.18 67.4405 53.332H78.3485V45.628C78.6365 45.292 79.0205 44.98 79.5005 44.692C80.0045 44.38 80.5085 44.2 81.0125 44.152V53.332H85.4765C85.3805 53.956 85.1765 54.46 84.8645 54.844C84.5765 55.228 84.1445 55.42 83.5685 55.42H81.0125V60.856C80.7245 61.096 80.3405 61.252 79.8605 61.324C79.4045 61.396 78.9005 61.432 78.3485 61.432V55.42H65.3525Z" fill="#531403"/>
</svg>
